<?xml version="1.0" standalone="no"?>
<!DOCTYPE svg PUBLIC "-//W3C//DTD SVG 20010904//EN"
 "http://www.w3.org/TR/2001/REC-SVG-20010904/DTD/svg10.dtd">
<svg version="1.0" xmlns="http://www.w3.org/2000/svg"
 width="500.000000pt" height="500.000000pt" viewBox="0 0 500.000000 500.000000"
 preserveAspectRatio="xMidYMid meet">
<metadata>
Created by potrace 1.11, written by Peter Selinger 2001-2013
</metadata>
<g transform="translate(0.000000,500.000000) scale(0.100000,-0.100000)"
fill="#000000" stroke="none">
<path d="M2305 4994 c-519 -53 -924 -208 -1322 -505 -126 -94 -378 -346 -472
-472 -264 -354 -420 -727 -488 -1167 -24 -161 -24 -539 0 -700 68 -440 224
-813 488 -1167 94 -126 346 -378 472 -472 354 -264 727 -420 1167 -488 161
-24 539 -24 700 0 536 82 1000 308 1378 672 409 392 661 882 749 1455 24 161
24 539 0 700 -67 437 -225 815 -488 1167 -94 126 -346 378 -472 472 -351 262
-729 421 -1157 486 -101 15 -468 28 -555 19z m-1418 -1490 l150 -7 497 -1123
497 -1122 -38 -87 c-66 -150 -23 -224 -518 895 -237 536 -444 1000 -459 1030
-90 177 -216 316 -331 366 -48 21 -65 34 -65 48 0 17 5 18 59 13 32 -4 126 -9
208 -13z m803 -3 c0 -11 -19 -30 -51 -49 -37 -24 -55 -43 -71 -79 -44 -100
-15 -189 298 -900 135 -307 249 -561 252 -565 6 -6 327 707 339 752 5 19 -153
396 -213 510 -25 46 -62 106 -82 133 -44 57 -144 128 -224 158 -44 17 -58 27
-58 42 0 19 4 20 83 13 45 -3 143 -9 217 -13 l135 -6 435 -1036 c239 -569 451
-1074 471 -1121 l36 -87 -34 -86 c-32 -79 -38 -87 -62 -87 -26 0 -35 20 -310
673 -156 369 -287 676 -291 680 -4 4 -103 -213 -221 -482 -117 -270 -217 -487
-221 -483 -5 5 -842 1893 -894 2018 -4 8 50 14 173 21 293 16 293 16 293 -6z
m1280 0 c0 -13 -18 -29 -54 -49 -40 -23 -59 -42 -75 -75 -52 -107 -24 -202
260 -885 127 -306 234 -560 238 -564 6 -7 347 810 407 977 66 182 84 352 47
437 -23 50 -84 106 -134 123 -23 8 -35 19 -37 34 l-4 23 104 -9 c132 -10 446
-10 566 0 88 8 92 8 92 -12 0 -13 -19 -32 -56 -57 -85 -56 -159 -128 -208
-203 -80 -120 -176 -333 -476 -1063 -162 -394 -298 -713 -301 -710 -4 6 -821
1953 -844 2013 -5 14 14 17 167 26 292 16 308 16 308 -6z"/>
</g>
</svg>
